<svg width="40" height="40" viewBox="0 0 40 40" fill="none" xmlns="http://www.w3.org/2000/svg">
<path d="M38.4828 6.61255L20.7042 0.616626C20.2489 0.461125 19.7558 0.461125 19.3005 0.616626L1.52197 6.61255C1.09775 6.75471 0.725751 7.02296 0.454518 7.38228C0.183284 7.74161 0.0254205 8.17532 0.00153237 8.62681C-0.00051079 8.66613 -0.00051079 8.70554 0.00153237 8.74486V23.7347C0.00153237 24.331 0.235669 24.9029 0.652434 25.3246C1.0692 25.7463 1.63445 25.9832 2.22385 25.9832C2.81324 25.9832 3.3785 25.7463 3.79526 25.3246C4.21203 24.9029 4.44616 24.331 4.44616 23.7347V11.8646L8.83709 13.3449C7.47436 15.984 7.0694 19.023 7.69269 21.9331C8.31598 24.8431 9.92805 27.4399 12.2483 29.2715C9.21196 30.7865 6.64223 33.1118 4.81655 35.9964C4.65214 36.2436 4.53794 36.5214 4.48059 36.8137C4.42324 37.106 4.42389 37.4069 4.48248 37.6989C4.54108 37.9909 4.65646 38.2682 4.82192 38.5147C4.98738 38.7613 5.19962 38.972 5.4463 39.1348C5.69299 39.2976 5.96919 39.4092 6.25885 39.463C6.54852 39.5168 6.84588 39.5119 7.13363 39.4484C7.42139 39.385 7.69381 39.2643 7.93506 39.0933C8.17631 38.9224 8.38158 38.7047 8.53893 38.4528C11.1816 34.3381 15.3725 31.9791 20.0024 31.9791C24.6322 31.9791 28.8231 34.3381 31.4751 38.4528C31.6324 38.7047 31.8377 38.9224 32.0789 39.0933C32.3202 39.2643 32.5926 39.385 32.8804 39.4484C33.1681 39.5119 33.4655 39.5168 33.7551 39.463C34.0448 39.4092 34.321 39.2976 34.5677 39.1348C34.8144 38.972 35.0266 38.7613 35.1921 38.5147C35.3575 38.2682 35.4729 37.9909 35.5315 37.6989C35.5901 37.4069 35.5908 37.106 35.5334 36.8137C35.4761 36.5214 35.3619 36.2436 35.1974 35.9964C33.37 33.1084 30.7969 30.781 27.7564 29.2659C30.0767 27.4343 31.6888 24.8375 32.312 21.9275C32.9353 19.0174 32.5304 15.9784 31.1676 13.3392L38.4828 10.8715C38.9247 10.7219 39.309 10.4356 39.5812 10.0529C39.8535 9.67029 40 9.21073 40 8.73924C40 8.26775 39.8535 7.80818 39.5812 7.42554C39.309 7.04289 38.9247 6.75653 38.4828 6.60693V6.61255ZM20.0024 5.11357L30.7528 8.74486L20.0024 12.3705L9.26118 8.74486L20.0024 5.11357ZM28.1509 19.2377C28.1511 20.5183 27.8565 21.7813 27.2904 22.9267C26.7243 24.072 25.9023 25.0682 24.8896 25.8362C23.8768 26.6043 22.7012 27.1231 21.4558 27.3515C20.2104 27.5799 18.9296 27.5116 17.7148 27.1521C16.5 26.7926 15.3847 26.1518 14.4573 25.2803C13.5299 24.4089 12.8159 23.3309 12.3718 22.1317C11.9278 20.9325 11.7659 19.6452 11.8991 18.3717C12.0323 17.0983 12.4569 15.8737 13.1391 14.7951L19.3005 16.8731C19.7559 17.0279 20.2488 17.0279 20.7042 16.8731L26.8656 14.7951C27.706 16.1208 28.1521 17.6628 28.1509 19.2377Z" fill="#348CE5"/>
</svg>
