<svg width="80" height="80" viewBox="0 0 80 80" fill="none" xmlns="http://www.w3.org/2000/svg">
<rect width="80" height="80" rx="15" fill="#F2F5F4"/>
<path d="M43.6 49.2C43.92 49.2 44.2 49.08 44.44 48.84C44.68 48.6 44.8 48.32 44.8 48C44.8 47.68 44.68 47.4 44.44 47.16C44.2 46.92 43.92 46.8 43.6 46.8C43.28 46.8 43 46.92 42.76 47.16C42.52 47.4 42.4 47.68 42.4 48C42.4 48.32 42.52 48.6 42.76 48.84C43 49.08 43.28 49.2 43.6 49.2ZM48 49.2C48.32 49.2 48.6 49.08 48.84 48.84C49.08 48.6 49.2 48.32 49.2 48C49.2 47.68 49.08 47.4 48.84 47.16C48.6 46.92 48.32 46.8 48 46.8C47.68 46.8 47.4 46.92 47.16 47.16C46.92 47.4 46.8 47.68 46.8 48C46.8 48.32 46.92 48.6 47.16 48.84C47.4 49.08 47.68 49.2 48 49.2ZM52.4 49.2C52.72 49.2 53 49.08 53.24 48.84C53.48 48.6 53.6 48.32 53.6 48C53.6 47.68 53.48 47.4 53.24 47.16C53 46.92 52.72 46.8 52.4 46.8C52.08 46.8 51.8 46.92 51.56 47.16C51.32 47.4 51.2 47.68 51.2 48C51.2 48.32 51.32 48.6 51.56 48.84C51.8 49.08 52.08 49.2 52.4 49.2ZM27.2 52.8C26.32 52.8 25.5669 52.4869 24.9408 51.8608C24.3147 51.2347 24.0011 50.4811 24 49.6V27.2C24 26.32 24.3136 25.5669 24.9408 24.9408C25.568 24.3147 26.3211 24.0011 27.2 24H49.6C50.48 24 51.2336 24.3136 51.8608 24.9408C52.488 25.568 52.8011 26.3211 52.8 27.2V35.2C52.8 35.6533 52.6464 36.0336 52.3392 36.3408C52.032 36.648 51.6523 36.8011 51.2 36.8C50.7477 36.7989 50.368 36.6453 50.0608 36.3392C49.7536 36.0331 49.6 35.6533 49.6 35.2V27.2H27.2V49.6H35.2C35.6533 49.6 36.0336 49.7536 36.3408 50.0608C36.648 50.368 36.8011 50.7477 36.8 51.2C36.7989 51.6523 36.6453 52.0325 36.3392 52.3408C36.0331 52.6491 35.6533 52.8021 35.2 52.8H27.2ZM27.2 48V49.6V27.2V36.92V36.8V48ZM30.4 44.8C30.4 45.2533 30.5536 45.6336 30.8608 45.9408C31.168 46.248 31.5477 46.4011 32 46.4H35.32C35.7733 46.4 36.1536 46.2464 36.4608 45.9392C36.768 45.632 36.9211 45.2523 36.92 44.8C36.9189 44.3477 36.7659 43.968 36.4608 43.6608C36.1557 43.3536 35.7755 43.2 35.32 43.2H32C31.5467 43.2 31.1669 43.3536 30.8608 43.6608C30.5547 43.968 30.4011 44.3477 30.4 44.8ZM30.4 38.4C30.4 38.8533 30.5536 39.2336 30.8608 39.5408C31.168 39.848 31.5477 40.0011 32 40H40C40.4533 40 40.8336 39.8464 41.1408 39.5392C41.448 39.232 41.6011 38.8523 41.6 38.4C41.5989 37.9477 41.4453 37.568 41.1392 37.2608C40.8331 36.9536 40.4533 36.8 40 36.8H32C31.5467 36.8 31.1669 36.9536 30.8608 37.2608C30.5547 37.568 30.4011 37.9477 30.4 38.4ZM30.4 32C30.4 32.4533 30.5536 32.8336 30.8608 33.1408C31.168 33.448 31.5477 33.6011 32 33.6H44.8C45.2533 33.6 45.6336 33.4464 45.9408 33.1392C46.248 32.832 46.4011 32.4523 46.4 32C46.3989 31.5477 46.2453 31.168 45.9392 30.8608C45.6331 30.5536 45.2533 30.4 44.8 30.4H32C31.5467 30.4 31.1669 30.5536 30.8608 30.8608C30.5547 31.168 30.4011 31.5477 30.4 32ZM48 56C45.7867 56 43.9003 55.2197 42.3408 53.6592C40.7813 52.0987 40.0011 50.2123 40 48C39.9989 45.7877 40.7792 43.9013 42.3408 42.3408C43.9024 40.7803 45.7888 40 48 40C50.2112 40 52.0981 40.7803 53.6608 42.3408C55.2235 43.9013 56.0032 45.7877 56 48C55.9968 50.2123 55.2165 52.0992 53.6592 53.6608C52.1019 55.2224 50.2155 56.0021 48 56Z" fill="#348CE5"/>
</svg>
