<svg width="36" height="46" viewBox="0 0 36 46" fill="none" xmlns="http://www.w3.org/2000/svg">
<path d="M2.5 38.5556V5.22222C2.5 4.63285 2.73329 4.06762 3.14855 3.65087C3.56381 3.23413 4.12702 3 4.71429 3H31.2857C31.873 3 32.4362 3.23413 32.8515 3.65087C33.2667 4.06762 33.5 4.63285 33.5 5.22222V34.1111H6.92857C5.75404 34.1111 4.62762 34.5794 3.7971 35.4129C2.96658 36.2464 2.5 37.3768 2.5 38.5556ZM2.5 38.5556C2.5 39.7343 2.96658 40.8648 3.7971 41.6983C4.62762 42.5317 5.75404 43 6.92857 43H33.5M11.3571 3V34.1111M26.8571 34.1111V43" stroke="#348CE5" stroke-width="4.5" stroke-linecap="round" stroke-linejoin="round"/>
</svg>
