<svg width="78" height="78" viewBox="0 0 78 78" fill="none" xmlns="http://www.w3.org/2000/svg">
<g filter="url(#filter0_d_431_598)">
<circle cx="39" cy="35" r="35" fill="white"/>
</g>
<path d="M44.902 42.318C43.4967 42.2353 42.484 41.7187 41.864 40.768C41.244 39.8173 40.934 38.7427 40.934 37.544C40.934 36.0973 41.2233 34.7127 41.802 33.39C42.422 32.026 43.2073 30.848 44.158 29.856C45.1087 28.864 46.142 28.182 47.258 27.81L48.746 29.856C48.2087 30.228 47.6713 30.724 47.134 31.344C46.638 31.9227 46.1833 32.5427 45.77 33.204C45.398 33.8653 45.1293 34.5267 44.964 35.188C45.708 35.2293 46.3487 35.4153 46.886 35.746C47.4233 36.0353 47.8367 36.428 48.126 36.924C48.4153 37.42 48.56 38.0193 48.56 38.722C48.56 39.8793 48.2087 40.7887 47.506 41.45C46.8033 42.07 45.9353 42.3593 44.902 42.318ZM33.246 42.318C31.7993 42.2767 30.766 41.7807 30.146 40.83C29.526 39.838 29.216 38.7427 29.216 37.544C29.216 36.0973 29.5053 34.7127 30.084 33.39C30.704 32.026 31.4893 30.848 32.44 29.856C33.3907 28.864 34.424 28.182 35.54 27.81L37.028 29.856C36.4907 30.228 35.9533 30.724 35.416 31.344C34.92 31.9227 34.4653 32.5427 34.052 33.204C33.68 33.8653 33.4113 34.5267 33.246 35.188C33.99 35.2293 34.6307 35.4153 35.168 35.746C35.7053 36.0353 36.1187 36.428 36.408 36.924C36.6973 37.42 36.842 38.0193 36.842 38.722C36.842 39.8793 36.47 40.768 35.726 41.388C35.0233 42.008 34.1967 42.318 33.246 42.318Z" fill="#348CE5"/>
<defs>
<filter id="filter0_d_431_598" x="0" y="0" width="78" height="78" filterUnits="userSpaceOnUse" color-interpolation-filters="sRGB">
<feFlood flood-opacity="0" result="BackgroundImageFix"/>
<feColorMatrix in="SourceAlpha" type="matrix" values="0 0 0 0 0 0 0 0 0 0 0 0 0 0 0 0 0 0 127 0" result="hardAlpha"/>
<feOffset dy="4"/>
<feGaussianBlur stdDeviation="2"/>
<feComposite in2="hardAlpha" operator="out"/>
<feColorMatrix type="matrix" values="0 0 0 0 0 0 0 0 0 0 0 0 0 0 0 0 0 0 0.15 0"/>
<feBlend mode="normal" in2="BackgroundImageFix" result="effect1_dropShadow_431_598"/>
<feBlend mode="normal" in="SourceGraphic" in2="effect1_dropShadow_431_598" result="shape"/>
</filter>
</defs>
</svg>
