<svg width="45" height="44" viewBox="0 0 45 44" fill="none" xmlns="http://www.w3.org/2000/svg">
<path d="M20.2226 4.726C21.2366 2.908 21.7426 2 22.5006 2C23.2586 2 23.7646 2.908 24.7786 4.726L25.0386 5.196C25.3286 5.714 25.4726 5.972 25.6966 6.142C25.9206 6.312 26.2006 6.376 26.7606 6.502L27.2686 6.618C29.2366 7.062 30.2206 7.286 30.4546 8.038C30.6886 8.79 30.0186 9.576 28.6766 11.144L28.3286 11.55C27.9486 11.996 27.7586 12.218 27.6726 12.494C27.5866 12.77 27.6146 13.068 27.6726 13.662L27.7246 14.202C27.9286 16.296 28.0286 17.342 27.4166 17.808C26.8046 18.274 25.8826 17.848 24.0406 17L23.5626 16.78C23.0406 16.54 22.7786 16.42 22.5006 16.42C22.2226 16.42 21.9606 16.54 21.4386 16.78L20.9606 17C19.1206 17.85 18.1966 18.274 17.5846 17.808C16.9726 17.342 17.0726 16.296 17.2766 14.204L17.3286 13.662C17.3866 13.068 17.4146 12.77 17.3286 12.494C17.2426 12.218 17.0526 11.994 16.6726 11.55L16.3246 11.144C14.9846 9.576 14.3126 8.79 14.5466 8.038C14.7806 7.286 15.7646 7.062 17.7326 6.618L18.2406 6.502C18.8006 6.376 19.0806 6.312 19.3046 6.142C19.5286 5.972 19.6726 5.714 19.9606 5.196L20.2226 4.726ZM37.3606 13.364C37.8686 12.454 38.1206 12 38.5006 12C38.8806 12 39.1326 12.454 39.6406 13.364L39.7706 13.598C39.9146 13.858 39.9866 13.986 40.0986 14.072C40.2106 14.158 40.3506 14.188 40.6306 14.252L40.8846 14.308C41.8686 14.532 42.3606 14.642 42.4766 15.02C42.5926 15.398 42.2586 15.788 41.5886 16.572L41.4146 16.774C41.2246 16.998 41.1286 17.11 41.0866 17.248C41.0446 17.386 41.0586 17.534 41.0866 17.832L41.1126 18.102C41.2126 19.148 41.2646 19.672 40.9586 19.904C40.6526 20.136 40.1926 19.924 39.2706 19.5L39.0306 19.39C38.7706 19.27 38.6386 19.21 38.5006 19.21C38.3606 19.21 38.2306 19.27 37.9686 19.39L37.7306 19.5C36.8106 19.924 36.3506 20.136 36.0426 19.904C35.7366 19.672 35.7866 19.148 35.8886 18.102L35.9146 17.832C35.9426 17.532 35.9586 17.384 35.9146 17.248C35.8726 17.108 35.7766 16.998 35.5866 16.774L35.4126 16.572C34.7426 15.788 34.4066 15.396 34.5246 15.02C34.6426 14.644 35.1326 14.532 36.1166 14.308L36.3706 14.252C36.6506 14.188 36.7906 14.156 36.9026 14.072C37.0146 13.986 37.0866 13.856 37.2306 13.598L37.3606 13.364ZM5.36058 13.364C5.87058 12.454 6.12058 12 6.50058 12C6.88058 12 7.13258 12.454 7.64058 13.364L7.77058 13.598C7.91458 13.858 7.98658 13.986 8.09858 14.072C8.21058 14.158 8.35058 14.188 8.63058 14.252L8.88458 14.308C9.86858 14.532 10.3606 14.642 10.4786 15.02C10.5946 15.396 10.2586 15.788 9.58858 16.572L9.41458 16.774C9.22458 16.998 9.12858 17.11 9.08658 17.248C9.04458 17.386 9.05858 17.534 9.08658 17.832L9.11258 18.102C9.21258 19.148 9.26458 19.672 8.95858 19.904C8.65258 20.136 8.19058 19.924 7.27058 19.5L7.03058 19.39C6.77058 19.27 6.63858 19.21 6.50058 19.21C6.36058 19.21 6.23058 19.27 5.96858 19.39L5.73058 19.5C4.81058 19.924 4.35058 20.136 4.04258 19.904C3.73658 19.672 3.78658 19.148 3.88858 18.102L3.91458 17.832C3.94258 17.532 3.95858 17.384 3.91458 17.248C3.87258 17.108 3.77658 16.998 3.58658 16.774L3.41258 16.572C2.74258 15.788 2.40658 15.396 2.52258 15.02C2.64058 14.642 3.13258 14.532 4.11658 14.308L4.37058 14.252C4.65058 14.188 4.79058 14.156 4.90258 14.072C5.01458 13.986 5.08658 13.856 5.23058 13.598L5.36058 13.364Z" stroke="#348CE5" stroke-width="4"/>
<path d="M8.50049 38.7759H13.0205C15.0405 38.7759 17.0865 38.9879 19.0525 39.3919C22.5627 40.1108 26.1739 40.1908 29.7125 39.6279C31.4485 39.3479 33.1525 38.9179 34.6965 38.1739C36.0885 37.4999 37.7945 36.5539 38.9405 35.4919C40.0845 34.4319 41.2765 32.6979 42.1205 31.3419C42.8485 30.1779 42.4965 28.7519 41.3485 27.8859C40.703 27.4176 39.926 27.1653 39.1285 27.1653C38.331 27.1653 37.5539 27.4176 36.9085 27.8859L33.2945 30.6159C31.8945 31.6759 30.3645 32.6499 28.5425 32.9399C28.3225 32.9746 28.0925 33.0059 27.8525 33.0339M27.8525 33.0339L27.6325 33.0579M27.8525 33.0339C28.1725 32.9472 28.466 32.7823 28.7065 32.5539C29.0083 32.2935 29.2549 31.9752 29.4315 31.6178C29.6081 31.2604 29.7112 30.8712 29.7347 30.4732C29.7582 30.0752 29.7016 29.6766 29.5683 29.3009C29.435 28.9252 29.2276 28.5801 28.9585 28.2859C28.6979 27.9966 28.3943 27.749 28.0585 27.5519C22.4645 24.2139 13.7585 26.7559 8.50049 30.4859M27.8525 33.0339C27.7803 33.05 27.7065 33.0581 27.6325 33.0579M27.6325 33.0579C26.4263 33.1788 25.2112 33.1815 24.0045 33.0659" stroke="#348CE5" stroke-width="4" stroke-linecap="round"/>
<path d="M8.50049 29C8.50049 27.3431 7.15734 26 5.50049 26C3.84363 26 2.50049 27.3431 2.50049 29V39C2.50049 40.6569 3.84363 42 5.50049 42C7.15734 42 8.50049 40.6569 8.50049 39V29Z" stroke="#348CE5" stroke-width="4"/>
</svg>
