<svg width="80" height="80" viewBox="0 0 80 80" fill="none" xmlns="http://www.w3.org/2000/svg">
<rect width="80" height="80" rx="15" fill="#F2F5F4"/>
<path d="M34.1122 49.1172L39.9992 45.5155L45.8862 49.1646L44.3443 42.3403L49.5305 37.7908L42.7091 37.1747L39.9992 30.7295L37.2893 37.1273L30.4679 37.7434L35.6541 42.3403L34.1122 49.1172ZM39.9992 49.9702L32.2434 54.7093C31.9007 54.9305 31.5425 55.0252 31.1688 54.9937C30.795 54.9621 30.4679 54.8357 30.1876 54.6145C29.9073 54.3934 29.6892 54.1172 29.5335 53.7861C29.3778 53.455 29.3466 53.0835 29.4401 52.6715L31.4958 43.7146L24.6277 37.696C24.3162 37.4116 24.1219 37.0875 24.0446 36.7235C23.9674 36.3596 23.9904 36.0044 24.1138 35.6582C24.2371 35.3119 24.424 35.0275 24.6744 34.8051C24.9249 34.5827 25.2675 34.4405 25.7023 34.3786L34.7664 33.573L38.2705 25.1374C38.4262 24.7583 38.6679 24.4739 38.9956 24.2843C39.3233 24.0948 39.6578 24 39.9992 24C40.3406 24 40.6751 24.0948 41.0028 24.2843C41.3305 24.4739 41.5722 24.7583 41.7279 25.1374L45.2321 33.573L54.2961 34.3786C54.7322 34.4418 55.0748 34.584 55.324 34.8051C55.5732 35.0263 55.76 35.3106 55.8846 35.6582C56.0092 36.0057 56.0329 36.3614 55.9557 36.7254C55.8784 37.0894 55.6834 37.4129 55.3707 37.696L48.5026 43.7146L50.5583 52.6715C50.6518 53.0822 50.6206 53.4538 50.4649 53.7861C50.3092 54.1185 50.0911 54.3946 49.8108 54.6145C49.5305 54.8344 49.2034 54.9608 48.8296 54.9937C48.4559 55.0265 48.0977 54.9317 47.755 54.7093L39.9992 49.9702Z" fill="#348CE5"/>
</svg>
