<svg width="80" height="80" viewBox="0 0 80 80" fill="none" xmlns="http://www.w3.org/2000/svg">
<rect width="80" height="80" rx="15" fill="#F2F5F4"/>
<path d="M56 39.6667C56 41.8 48.8356 50.3333 40 50.3333C31.1644 50.3333 24 41.8 24 39.6667C24 37.5333 31.1644 29 40 29C48.8356 29 56 37.5333 56 39.6667Z" stroke="#348CE5" stroke-width="3"/>
<path d="M45.3333 39.6666C45.3333 41.0811 44.7714 42.4376 43.7712 43.4378C42.771 44.438 41.4145 44.9999 40 44.9999C38.5855 44.9999 37.2289 44.438 36.2288 43.4378C35.2286 42.4376 34.6667 41.0811 34.6667 39.6666C34.6667 38.2521 35.2286 36.8955 36.2288 35.8953C37.2289 34.8952 38.5855 34.3333 40 34.3333C41.4145 34.3333 42.771 34.8952 43.7712 35.8953C44.7714 36.8955 45.3333 38.2521 45.3333 39.6666Z" stroke="#348CE5" stroke-width="3"/>
</svg>
